<svg xmlns="http://www.w3.org/2000/svg" width="64pt" height="64pt" viewBox="0 0 64 64" style="isolation:isolate"><defs><clipPath id="a"><rect width="64" height="64"/></clipPath></defs><g clip-path="url(#a)"><path d=" M 32.891 30.886 C 17.886 30.886 4.104 43.921 3.744 58.827 C 3.726 59.544 3.528 59.574 3.301 58.893 C 2.593 56.772 2 53.18 2 49.451 C 2 31.206 16.191 16.248 32.837 15.112 C 33.55 15.064 34.129 14.444 34.129 13.729 L 34.129 5.548 C 34.129 4.444 34.874 4.045 35.793 4.657 L 61.599 21.861 C 62.517 22.473 62.517 23.467 61.599 24.08 L 35.793 41.284 C 34.874 41.896 34.133 41.497 34.139 40.393 Q 34.185 31.766 34.185 31.766 C 34.185 31.281 33.605 30.886 32.891 30.886 Z "/></g></svg>