<svg xmlns="http://www.w3.org/2000/svg" width="76" height="77" viewBox="0 0 76 77">
    <g fill="none" fill-rule="evenodd" transform="translate(0 .633)">
        <circle cx="38" cy="38" r="38" fill="#8DACD7"/>
        <path fill="#789DE7" d="M38 76c20.987 0 38-17.013 38-38-23.798-3.455-23.798 10.364-33.778 15.737-14.962 8.057-26.1-.767-34.216 7.598C14.96 70.26 25.81 76 38 76zM23.798 26.869c12.292.945 21.557-5.956 16.788-12.761C36.081 7.677 51.855 7.49 60.494 7.37A37.83 37.83 0 0 0 38 0C17.013 0 0 17.013 0 38c0 0 3.838-12.667 23.798-11.131zM75.236 30.383a37.904 37.904 0 0 0-9.61-18.476c-1.236-1.307-6.502.527-11.889 4.214-9.547 6.535-17.931 15.342-11.515 19.192 3.839 2.303 15.354-.768 21.495-6.141 5.092-4.455 11.729 2.241 11.52 1.211z"/>
        <ellipse cx="33.912" cy="39.665" fill="#789DE7" rx="4.99" ry="4.222" transform="rotate(-24 33.912 39.665)"/>
        <ellipse cx="11.104" cy="38.024" fill="#789DE7" rx="2.687" ry="3.071" transform="rotate(-24 11.104 38.024)"/>
        <path fill="#222" d="M10.747 31.09c0 20.988 17.014 38 38 38a37.879 37.879 0 0 0 14.863-3.016C56.854 72.24 47.866 76 38 76 17.013 76 0 58.987 0 38 0 22.287 9.538 8.8 23.14 3.016 15.524 9.965 10.746 19.97 10.746 31.09z" opacity=".11"/>
    </g>
</svg>
