<svg xmlns="http://www.w3.org/2000/svg" xmlns:xlink="http://www.w3.org/1999/xlink" width="99" height="88" viewBox="0 0 99 88">
    <defs>
        <path id="a" d="M75.994 0c.934 0 1.69.765 1.691 1.686l.038 73.892c0 .93-.555 1.183-1.322.635 0 0-.331-.687-2.073-.687-1.743 0-1.584.994-3.124 1.305-1.54.31-1.542-1.305-3.191-1.305-1.65 0-1.739 1.305-3.309 1.305s-1.466-1.305-3.183-1.305c-1.716 0-1.882 1.305-3.389 1.305s-1.46-1.305-3.225-1.305c-1.764 0-1.756 1.305-3.317 1.305-1.56 0-1.45-1.305-3.1-1.305-1.65 0-1.588.995-3.182 1.305-1.593.31-1.878-1.305-3.471-1.305-1.594 0-1.713 1.305-3.248 1.305-1.536 0-1.29-1.305-2.993-1.305-1.704 0-1.894 1.305-3.487 1.305-1.592 0-1.73-1.305-3.388-1.305s-1.478 1.305-3.113 1.305-1.695-1.305-3.321-1.305c-1.627 0-1.601 1.305-3.202 1.305-1.6 0-1.528-1.305-3.244-1.305-1.717 0-1.782 1.305-3.39 1.305-1.61 0-1.468-1.305-2.875-1.305-1.406 0-1.994 1.653-3.529 1.305-1.535-.348-1.358-1.305-3.072-1.305s-1.755.588-1.755.588c-.676.635-1.222.385-1.22-.536L.193 1.686A1.692 1.692 0 0 1 1.888 0h74.106z"/>
        <path id="c" d="M37.485.591c.299 0 .546.218.585.504l.006.08c0 .321-.26.582-.591.582H1.043a.586.586 0 0 1-.591-.583c0-.322.26-.583.59-.583h36.443z"/>
        <path id="e" d="M28.532.718c.296 0 .541.218.58.503l.005.08a.586.586 0 0 1-.585.583H1.037a.583.583 0 1 1 0-1.166h27.495z"/>
        <path id="g" d="M.422.479h14.333v14.463H.422z"/>
        <path id="i" d="M.508.282S5.598 2.7 6.26 1.768c.663-.931 0 1.352 0 1.352H.667L.508.282z"/>
        <path id="k" d="M.422.225s5.446 2.296 8.153 2.296c2.707 0 .662 1.923.662 1.923H.428L.422.225z"/>
        <path id="m" d="M14.755.107v7.218L.422 7.34V5.605S8.73-2.876 8.73 1.433 14.755.107 14.755.107z"/>
        <path id="o" d="M2.316.355a1.8 1.8 0 0 1 1.792 1.808A1.8 1.8 0 0 1 2.316 3.97 1.8 1.8 0 0 1 .524 2.163 1.8 1.8 0 0 1 2.316.355z"/>
        <path id="q" d="M37.485.591c.299 0 .546.218.585.504l.006.08c0 .321-.26.582-.591.582H1.043a.586.586 0 0 1-.591-.583c0-.322.26-.583.59-.583h36.443z"/>
        <path id="s" d="M28.532.718c.296 0 .541.218.58.503l.005.08a.586.586 0 0 1-.585.583H1.037a.583.583 0 1 1 0-1.166h27.495z"/>
        <path id="u" d="M.422.479h14.333v14.463H.422z"/>
        <path id="w" d="M.508.282S5.598 2.7 6.26 1.768c.663-.931 0 1.352 0 1.352H.667L.508.282z"/>
        <path id="y" d="M.422.225s5.446 2.296 8.153 2.296c2.707 0 .662 1.923.662 1.923H.428L.422.225z"/>
        <path id="A" d="M14.755.107v7.218L.422 7.34V5.605S8.73-2.876 8.73 1.433 14.755.107 14.755.107z"/>
        <path id="C" d="M2.316.355a1.8 1.8 0 0 1 1.792 1.808A1.8 1.8 0 0 1 2.316 3.97 1.8 1.8 0 0 1 .524 2.163 1.8 1.8 0 0 1 2.316.355z"/>
        <path id="E" d="M37.485.591c.299 0 .546.218.585.504l.006.08c0 .321-.26.582-.591.582H1.043a.586.586 0 0 1-.591-.583c0-.322.26-.583.59-.583h36.443z"/>
        <path id="G" d="M28.532.718c.296 0 .541.218.58.503l.005.08a.586.586 0 0 1-.585.583H1.037a.583.583 0 1 1 0-1.166h27.495z"/>
        <path id="I" d="M.422.479h14.333v14.463H.422z"/>
        <path id="K" d="M.508.282S5.598 2.7 6.26 1.768c.663-.931 0 1.352 0 1.352H.667L.508.282z"/>
        <path id="M" d="M.422.225s5.446 2.296 8.153 2.296c2.707 0 .662 1.923.662 1.923H.428L.422.225z"/>
        <path id="O" d="M14.755.107v7.218L.422 7.34V5.605S8.73-2.876 8.73 1.433 14.755.107 14.755.107z"/>
        <path id="Q" d="M2.316.355a1.8 1.8 0 0 1 1.792 1.808A1.8 1.8 0 0 1 2.316 3.97 1.8 1.8 0 0 1 .524 2.163 1.8 1.8 0 0 1 2.316.355z"/>
        <path id="S" d="M75.994 0c.934 0 1.69.765 1.691 1.686l.038 73.892c0 .93-.555 1.183-1.322.635 0 0-.331-.687-2.073-.687-1.743 0-1.584.994-3.124 1.305-1.54.31-1.542-1.305-3.191-1.305-1.65 0-1.739 1.305-3.309 1.305s-1.466-1.305-3.183-1.305c-1.716 0-1.882 1.305-3.389 1.305s-1.46-1.305-3.225-1.305c-1.764 0-1.756 1.305-3.317 1.305-1.56 0-1.45-1.305-3.1-1.305-1.65 0-1.588.995-3.182 1.305-1.593.31-1.878-1.305-3.471-1.305-1.594 0-1.713 1.305-3.248 1.305-1.536 0-1.29-1.305-2.993-1.305-1.704 0-1.894 1.305-3.487 1.305-1.592 0-1.73-1.305-3.388-1.305s-1.478 1.305-3.113 1.305-1.695-1.305-3.321-1.305c-1.627 0-1.601 1.305-3.202 1.305-1.6 0-1.528-1.305-3.244-1.305-1.717 0-1.782 1.305-3.39 1.305-1.61 0-1.468-1.305-2.875-1.305-1.406 0-1.994 1.653-3.529 1.305-1.535-.348-1.358-1.305-3.072-1.305s-1.755.588-1.755.588c-.676.635-1.222.385-1.22-.536L.193 1.686A1.692 1.692 0 0 1 1.888 0h74.106z"/>
        <path id="U" d="M52.566 0c.206 0 .396.112.496.291l.037.08a.6.6 0 0 1-.037.503l-.048.073a.568.568 0 0 1-.448.219H.658A.568.568 0 0 1 .162.874L.125.794A.6.6 0 0 1 .162.292L.21.22A.568.568 0 0 1 .658 0h51.908z"/>
        <path id="W" d="M52.566 0c.206 0 .396.112.496.291l.037.08a.6.6 0 0 1-.037.503l-.048.073a.568.568 0 0 1-.448.219H.658A.568.568 0 0 1 .162.874L.125.794A.6.6 0 0 1 .162.292L.21.22A.568.568 0 0 1 .658 0h51.908z"/>
        <path id="Y" d="M19.853 0c10.965 0 19.854 8.889 19.854 19.853 0 10.965-8.889 19.854-19.854 19.854C8.89 39.707 0 30.818 0 19.853 0 8.89 8.889 0 19.853 0z"/>
        <path id="aa" d="M10.138 14.156c1.864-1.978 4.894-1.978 6.759 0l-3.38 3.585-3.38-3.585zm-5.069-3.898c4.898-4.666 12.843-4.666 17.741 0l-2.534 2.414c-3.498-3.331-9.175-3.331-12.673 0L5.07 10.258zM0 5.284c7.465-7.045 19.57-7.045 27.034 0l-2.457 2.32c-6.108-5.764-16.012-5.764-22.12 0L0 5.283z"/>
    </defs>
    <g fill="none" fill-rule="evenodd">
        <path fill="#36C" d="M-71-106h240v320H-71z"/>
        <path fill="#FFF" fill-rule="nonzero" d="M-71-39h240v223H-71z"/>
        <g>
            <mask id="b" fill="#fff">
                <use xlink:href="#a"/>
            </mask>
            <path fill="#F5F5F5" d="M-4.224 81.103h86.172V-4.224H-4.224z" mask="url(#b)"/>
        </g>
        <g transform="translate(6.759 10.983)">
            <mask id="d" fill="#fff">
                <use xlink:href="#c"/>
            </mask>
            <path fill="#C8CCD1" d="M-3.773 5.981H42.3v-9.614H-3.773z" mask="url(#d)"/>
        </g>
        <g transform="translate(6.759 6.759)">
            <mask id="f" fill="#fff">
                <use xlink:href="#e"/>
            </mask>
            <path fill="#A2A9B1" d="M-3.773 6.108h37.115v-9.614H-3.773z" mask="url(#f)"/>
        </g>
        <g transform="translate(55.759 5.914)">
            <mask id="h" fill="#fff">
                <use xlink:href="#g"/>
            </mask>
            <path fill="#C8CCD1" d="M-3.802 19.166H18.98V-3.745H-3.8z" mask="url(#h)"/>
        </g>
        <g transform="translate(63.362 13.517)">
            <mask id="j" fill="#fff">
                <use xlink:href="#i"/>
            </mask>
            <path fill="#A2A9B1" d="M-3.716 7.344h14.495V-3.942H-3.716z" mask="url(#j)"/>
        </g>
        <g transform="translate(55.759 15.207)">
            <mask id="l" fill="#fff">
                <use xlink:href="#k"/>
            </mask>
            <path fill="#A2A9B1" d="M-3.802 8.668h18.004V-3.999H-3.802z" mask="url(#l)"/>
        </g>
        <g transform="translate(55.759 13.517)">
            <mask id="n" fill="#fff">
                <use xlink:href="#m"/>
            </mask>
            <path fill="#EAECF0" d="M-3.802 11.564H18.98V-4.117H-3.8z" mask="url(#n)"/>
        </g>
        <g transform="translate(57.448 8.448)">
            <mask id="p" fill="#fff">
                <use xlink:href="#o"/>
            </mask>
            <path fill="#A2A9B1" d="M-3.7 8.195H8.332V-3.87H-3.7z" mask="url(#p)"/>
        </g>
        <g transform="translate(6.759 35.483)">
            <mask id="r" fill="#fff">
                <use xlink:href="#q"/>
            </mask>
            <path fill="#C8CCD1" d="M-3.773 5.981H42.3v-9.614H-3.773z" mask="url(#r)"/>
        </g>
        <g transform="translate(6.759 31.259)">
            <mask id="t" fill="#fff">
                <use xlink:href="#s"/>
            </mask>
            <path fill="#A2A9B1" d="M-3.773 6.108h37.115v-9.614H-3.773z" mask="url(#t)"/>
        </g>
        <g transform="translate(55.759 30.414)">
            <mask id="v" fill="#fff">
                <use xlink:href="#u"/>
            </mask>
            <path fill="#C8CCD1" d="M-3.802 19.166H18.98V-3.745H-3.8z" mask="url(#v)"/>
        </g>
        <g transform="translate(63.362 38.017)">
            <mask id="x" fill="#fff">
                <use xlink:href="#w"/>
            </mask>
            <path fill="#A2A9B1" d="M-3.716 7.344h14.495V-3.942H-3.716z" mask="url(#x)"/>
        </g>
        <g transform="translate(55.759 39.707)">
            <mask id="z" fill="#fff">
                <use xlink:href="#y"/>
            </mask>
            <path fill="#A2A9B1" d="M-3.802 8.668h18.004V-3.999H-3.802z" mask="url(#z)"/>
        </g>
        <g transform="translate(55.759 38.017)">
            <mask id="B" fill="#fff">
                <use xlink:href="#A"/>
            </mask>
            <path fill="#EAECF0" d="M-3.802 11.564H18.98V-4.117H-3.8z" mask="url(#B)"/>
        </g>
        <g transform="translate(57.448 32.948)">
            <mask id="D" fill="#fff">
                <use xlink:href="#C"/>
            </mask>
            <path fill="#A2A9B1" d="M-3.7 8.195H8.332V-3.87H-3.7z" mask="url(#D)"/>
        </g>
        <g transform="translate(6.759 59.983)">
            <mask id="F" fill="#fff">
                <use xlink:href="#E"/>
            </mask>
            <path fill="#C8CCD1" d="M-3.773 5.981H42.3v-9.614H-3.773z" mask="url(#F)"/>
        </g>
        <g transform="translate(6.759 55.759)">
            <mask id="H" fill="#fff">
                <use xlink:href="#G"/>
            </mask>
            <path fill="#A2A9B1" d="M-3.773 6.108h37.115v-9.614H-3.773z" mask="url(#H)"/>
        </g>
        <g transform="translate(55.759 54.914)">
            <mask id="J" fill="#fff">
                <use xlink:href="#I"/>
            </mask>
            <path fill="#C8CCD1" d="M-3.802 19.166H18.98V-3.745H-3.8z" mask="url(#J)"/>
        </g>
        <g transform="translate(63.362 62.517)">
            <mask id="L" fill="#fff">
                <use xlink:href="#K"/>
            </mask>
            <path fill="#A2A9B1" d="M-3.716 7.344h14.495V-3.942H-3.716z" mask="url(#L)"/>
        </g>
        <g transform="translate(55.759 64.207)">
            <mask id="N" fill="#fff">
                <use xlink:href="#M"/>
            </mask>
            <path fill="#A2A9B1" d="M-3.802 8.668h18.004V-3.999H-3.802z" mask="url(#N)"/>
        </g>
        <g transform="translate(55.759 62.517)">
            <mask id="P" fill="#fff">
                <use xlink:href="#O"/>
            </mask>
            <path fill="#EAECF0" d="M-3.802 11.564H18.98V-4.117H-3.8z" mask="url(#P)"/>
        </g>
        <g transform="translate(57.448 57.448)">
            <mask id="R" fill="#fff">
                <use xlink:href="#Q"/>
            </mask>
            <path fill="#A2A9B1" d="M-3.7 8.195H8.332V-3.87H-3.7z" mask="url(#R)"/>
        </g>
        <g>
            <mask id="T" fill="#fff">
                <use xlink:href="#S"/>
            </mask>
            <path stroke="#A2A9B1" stroke-linecap="round" stroke-width="4" d="M.193 1.686A1.692 1.692 0 0 1 1.888 0h74.106c.934 0 1.69.765 1.691 1.686l.038 73.892c0 .93-.555 1.183-1.322.635 0 0-.331-.687-2.073-.687-1.743 0-1.584.994-3.124 1.305-1.54.31-1.542-1.305-3.191-1.305-1.65 0-1.739 1.305-3.309 1.305s-1.466-1.305-3.183-1.305c-1.716 0-1.882 1.305-3.389 1.305s-1.46-1.305-3.225-1.305c-1.764 0-1.756 1.305-3.317 1.305-1.56 0-1.45-1.305-3.1-1.305-1.65 0-1.588.995-3.182 1.305-1.593.31-1.878-1.305-3.471-1.305-1.594 0-1.713 1.305-3.248 1.305-1.536 0-1.29-1.305-2.993-1.305-1.704 0-1.894 1.305-3.487 1.305-1.592 0-1.73-1.305-3.388-1.305s-1.478 1.305-3.113 1.305-1.695-1.305-3.321-1.305c-1.627 0-1.601 1.305-3.202 1.305-1.6 0-1.528-1.305-3.244-1.305-1.717 0-1.782 1.305-3.39 1.305-1.61 0-1.468-1.305-2.875-1.305-1.406 0-1.994 1.653-3.529 1.305-1.535-.348-1.358-1.305-3.072-1.305s-1.755.588-1.755.588c-.676.635-1.222.385-1.22-.536L.193 1.686z" mask="url(#T)"/>
        </g>
        <g transform="translate(0 25.345)">
            <mask id="V" fill="#fff">
                <use xlink:href="#U"/>
            </mask>
            <path fill="#A2A9B1" d="M-4.138 5.39h61.5v-9.614h-61.5z" mask="url(#V)"/>
        </g>
        <g transform="translate(0 49.845)">
            <mask id="X" fill="#fff">
                <use xlink:href="#W"/>
            </mask>
            <path fill="#A2A9B1" d="M-4.138 5.39h61.5v-9.614h-61.5z" mask="url(#X)"/>
        </g>
        <g transform="translate(58.293 47.31)">
            <mask id="Z" fill="#fff">
                <use xlink:href="#Y"/>
            </mask>
            <path fill="#C8CCD1" d="M-4.224 43.931H43.93V-4.224H-4.224z" mask="url(#Z)"/>
        </g>
        <path stroke="#A2A9B1" stroke-width="2" d="M78.147 87.017C89.11 87.017 98 78.13 98 67.164c0-10.965-8.889-19.854-19.853-19.854-10.965 0-19.854 8.889-19.854 19.854s8.889 19.853 19.854 19.853z"/>
        <g transform="translate(65.052 59.138)">
            <mask id="ab" fill="#fff">
                <use xlink:href="#aa"/>
            </mask>
            <path fill="#FFF" d="M-4.224 21.966h35.483v-26.19H-4.224z" mask="url(#ab)"/>
        </g>
    </g>
</svg>
