<svg xmlns="http://www.w3.org/2000/svg" width="45" height="45" viewBox="0 0 45 45">
    <g fill="none" fill-rule="evenodd">
        <circle cx="22.5" cy="22.5" r="22.5" fill="#FC3"/>
        <path fill="#FFF" d="M20.12 33.452c0 .657.532 1.19 1.19 1.19h2.38a1.19 1.19 0 0 0 1.191-1.19v-1.19h-4.762v1.19zm10.713-14.286A8.333 8.333 0 1 0 16.548 25s2.38 2.5 2.38 3.69v1.191c0 .658.534 1.19 1.191 1.19h4.762a1.19 1.19 0 0 0 1.19-1.19v-1.19c0-1.19 2.381-3.69 2.381-3.69a8.333 8.333 0 0 0 2.381-5.834z"/>
    </g>
</svg>
