<svg xmlns="http://www.w3.org/2000/svg" width="64" height="64" viewBox="0 0 64 64">
    <defs>
        <filter id="prefix__a" width="192.9%" height="192.9%" x="-45.7%" y="-45.7%" filterUnits="objectBoundingBox">
            <feOffset dy="4" in="SourceAlpha" result="shadowOffsetOuter1"/>
            <feGaussianBlur in="shadowOffsetOuter1" result="shadowBlurOuter1" stdDeviation="4"/>
            <feColorMatrix in="shadowBlurOuter1" result="shadowMatrixOuter1" values="0 0 0 0 0 0 0 0 0 0 0 0 0 0 0 0 0 0 0.5 0"/>
            <feMerge>
                <feMergeNode in="shadowMatrixOuter1"/>
                <feMergeNode in="SourceGraphic"/>
            </feMerge>
        </filter>
    </defs>
    <g fill="none" fill-rule="evenodd">
        <g fill="#FFF" filter="url(#prefix__a)" transform="translate(6.857 6.857)">
            <path d="M25.143 0c13.886 0 25.143 11.257 25.143 25.143 0 13.886-11.257 25.143-25.143 25.143C11.257 50.286 0 39.029 0 25.143 0 11.257 11.257 0 25.143 0z"/>
        </g>
        <path fill="#000" d="M42.51 16.263c-.077.102-.163.153-.256.153-.768.072-1.396.315-1.884.73s-.991 1.206-1.51 2.374l-7.94 17.653c-.052.164-.197.246-.436.246-.187 0-.332-.082-.436-.246l-4.452-9.188-5.122 9.188c-.104.164-.25.246-.436.246-.228 0-.379-.082-.451-.246l-7.8-17.653c-.488-1.096-1.002-1.862-1.541-2.297-.54-.436-1.292-.704-2.258-.807-.083 0-.16-.043-.233-.13-.073-.087-.11-.187-.11-.3 0-.287.084-.43.25-.43.695 0 1.422.03 2.18.092.705.061 1.37.092 1.992.092.633 0 1.38-.03 2.242-.092.903-.061 1.702-.092 2.397-.092.167 0 .25.143.25.43 0 .287-.052.43-.156.43-.696.051-1.243.226-1.643.523-.4.297-.599.686-.599 1.167 0 .246.083.553.25.922l6.444 14.366 3.659-6.822-3.41-7.052c-.612-1.26-1.115-2.072-1.51-2.435-.394-.364-.99-.587-1.79-.669-.073 0-.143-.043-.21-.13-.068-.087-.101-.187-.101-.3 0-.287.072-.43.218-.43.695 0 1.333.03 1.914.092.56.061 1.158.092 1.79.092.623 0 1.283-.03 1.978-.092.716-.061 1.422-.092 2.117-.092.166 0 .25.143.25.43 0 .287-.053.43-.156.43-1.391.092-2.087.482-2.087 1.168 0 .307.161.783.483 1.429l2.257 4.517 2.242-4.133c.312-.584.467-1.076.467-1.475 0-.942-.695-1.444-2.086-1.506-.124 0-.187-.143-.187-.43 0-.102.031-.2.094-.292.062-.092.124-.138.187-.138.498 0 1.11.03 1.837.092.695.061 1.266.092 1.712.092.322 0 .794-.025 1.417-.077.789-.071 1.448-.107 1.977-.107.124 0 .187.123.187.369 0 .327-.114.491-.343.491-.81.082-1.46.302-1.954.66-.493.36-1.107 1.174-1.844 2.444l-2.99 5.454 4.048 8.143 5.978-13.72c.208-.502.312-.963.312-1.383 0-1.004-.696-1.536-2.086-1.598-.125 0-.187-.143-.187-.43 0-.287.093-.43.28-.43.509 0 1.11.03 1.806.092.643.061 1.183.092 1.619.092.457 0 .986-.03 1.588-.092.623-.061 1.183-.092 1.681-.092.146 0 .218.123.218.369 0 .122-.039.235-.117.338z" transform="translate(6.857 6.857)"/>
    </g>
</svg>
